/* XPM */
static char *pizza[] = {
/* width height ncolors chars_per_pixel */
"16 16 3 1",
/* colors */
"A c #FFFFFFFFFFFF",
"B c #FFFF00000000",
"C c #000000000000",
/* pixels */
"BCBCCBCBCBCBBBBB",
"BCBCCCCCBBBBBBBB",
"BCBCCCCCCBCBCCCC",
"BCBCCCCCCBCBCCCC",
"BCBCCBCBCBCBCBCB",
"BCBCBBBBCBCBBBBB",
"BCBCBBBBCBCBCCCC",
"BBBBBBBBBBBBBBBB",
"CCCCCCCCAAAACCCC",
"CCCCCCCCCCCCCCCC",
"CCCCCCCCCCCCAAAA",
"CCCCCCCCAAAACCCC",
"CCCCCCCCCCCCAAAA",
"CCCCCCCCCCCCACAC",
"CCCCCCCCCCCCAAAA",
"CCCCCCCCCCCCCCCC"};
