/* XPM */
static char *pizza[] = {
/* columns rows colors chars-per-pixel */
"48 36 256 2 ",
"   c #0F340C",
".  c #35240B",
"X  c #7C0908",
"o  c #710F0C",
"O  c #583613",
"+  c #7A3013",
"@  c #723626",
"#  c #134B16",
"$  c #2F4E1A",
"%  c #0A6418",
"&  c #095B2A",
"*  c #175225",
"=  c #2E5429",
"-  c #396635",
";  c #336D2A",
":  c #2B6325",
">  c #514D18",
",  c #6D4D1B",
"<  c #594522",
"1  c #4E5233",
"2  c #6A5828",
"3  c #71502F",
"4  c #4D6D2D",
"5  c #696528",
"6  c #6F7132",
"7  c #48641D",
"8  c #317043",
"9  c #6E5743",
"0  c #5A724B",
"q  c #716B44",
"w  c #88180D",
"e  c #921B12",
"r  c #A31C10",
"t  c #9A2916",
"y  c #9A391B",
"u  c #8D2B12",
"i  c #B43516",
"p  c #AC2914",
"a  c #901B25",
"s  c #982A25",
"d  c #97352A",
"f  c #903531",
"g  c #A93A29",
"h  c #A73A35",
"j  c #AB332B",
"k  c #A01F21",
"l  c #D31C15",
"z  c #CB381A",
"x  c #D3381A",
"c  c #D22B15",
"v  c #EF2A17",
"b  c #CB3728",
"n  c #F63A20",
"m  c #91471C",
"M  c #B9561C",
"N  c #AE4C1D",
"B  c #85472A",
"V  c #9A4625",
"C  c #9B5829",
"Z  c #974338",
"A  c #8A5D39",
"S  c #8F5233",
"D  c #A74524",
"F  c #B64929",
"G  c #AA5828",
"H  c #B85829",
"J  c #A84939",
"K  c #B54736",
"L  c #A75837",
"P  c #B55638",
"I  c #97673A",
"U  c #89733B",
"Y  c #99733D",
"T  c #8E6B30",
"R  c #A6662A",
"E  c #B86328",
"W  c #A66839",
"Q  c #B86836",
"!  c #A97539",
"~  c #B97939",
"^  c #B0752E",
"/  c #D14D1B",
"(  c #C84925",
")  c #D64922",
"_  c #C95928",
"`  c #D65828",
"'  c #CB5137",
"]  c #F15629",
"[  c #CA6827",
"{  c #DB672A",
"}  c #D6782C",
"|  c #D66A37",
" . c #C57637",
".. c #D06D33",
"X. c #E5652A",
"o. c #E77A29",
"O. c #F06F32",
"+. c #E1431F",
"@. c #8F3D44",
"#. c #935845",
"$. c #A95846",
"%. c #BD5458",
"&. c #B45443",
"*. c #8A6745",
"=. c #956948",
"-. c #887A47",
";. c #987647",
":. c #9D7853",
">. c #A76548",
",. c #B66B46",
"<. c #A77946",
"1. c #B67747",
"2. c #B56A56",
"3. c #A47C51",
"4. c #B67A54",
"5. c #A66852",
"6. c #AC7767",
"7. c #B95F64",
"8. c #C0584C",
"9. c #CC754F",
"0. c #C66870",
"q. c #DE675A",
"w. c #788835",
"e. c #48813F",
"r. c #78814A",
"t. c #708D58",
"y. c #7C9160",
"u. c #8F8834",
"i. c #A58838",
"p. c #B78637",
"a. c #B19738",
"s. c #BDAB3C",
"d. c #C68737",
"f. c #C69939",
"g. c #D59739",
"h. c #DA8A33",
"j. c #E98735",
"k. c #EB9739",
"l. c #EC8E2D",
"z. c #D9B03B",
"x. c #E8AB3B",
"c. c #E3C03D",
"v. c #988546",
"b. c #998458",
"n. c #8D9252",
"m. c #A88545",
"M. c #B7884A",
"N. c #B89549",
"B. c #A98757",
"V. c #B8895A",
"C. c #B89757",
"Z. c #A79A4D",
"A. c #B4AA51",
"S. c #879968",
"D. c #969569",
"F. c #919375",
"G. c #A78866",
"H. c #B68B64",
"J. c #BB9666",
"K. c #B1956E",
"L. c #B5AB6C",
"P. c #9DA454",
"I. c #CA8A49",
"U. c #D58C4A",
"Y. c #C5964B",
"T. c #D69949",
"R. c #C68855",
"E. c #C69658",
"W. c #D69D58",
"Q. c #D08651",
"!. c #E69749",
"~. c #E9924E",
"^. c #CAA748",
"/. c #D8A748",
"(. c #D9B748",
"). c #CAA759",
"_. c #D6A856",
"`. c #C9B25B",
"'. c #D4B959",
"]. c #CAB84B",
"[. c #E7A44D",
"{. c #E9A757",
"}. c #E7B758",
"|. c #EFB14E",
" X c #C69766",
".X c #C69875",
"XX c #CD8E6E",
"oX c #C7A666",
"OX c #D4AB69",
"+X c #D7B667",
"@X c #CCA879",
"#X c #D6AC75",
"$X c #D4B77B",
"%X c #CAB470",
"&X c #ECB769",
"*X c #E7BC78",
"=X c #F4B971",
"-X c #BFC270",
";X c #D5C247",
":X c #E8CA51",
">X c #D3C271",
",X c #E5C668",
"<X c #E9C879",
"1X c #F5CC73",
"2X c #F1CE6A",
"3X c #BBA788",
"4X c #BDB7B4",
"5X c #AD9B82",
"6X c #C8AA8C",
"7X c #D9BB86",
"8X c #CFB394",
"9X c #C4BAB3",
"0X c #CAB9A5",
"qX c #CC9F8E",
"wX c #DAC298",
"eX c #D9C689",
"rX c #E5C99A",
"tX c #F0CA8F",
"yX c #D6C5A9",
"uX c #CCC3BB",
"iX c #D5C9B9",
"pX c #D7C9B3",
"aX c #E3CEAC",
"sX c #E6D6BA",
"dX c #EFD7A9",
"fX c #E3E19C",
"gX c #9EB2CE",
"hX c #ADBACE",
"jX c #A8BAD1",
"kX c #B9BDC7",
"lX c #BCC7D7",
"zX c #BAC1CC",
"xX c #D3CCC3",
"cX c #D6CCC9",
"vX c #DAD5CD",
"bX c #D8D2C6",
"nX c #C7CDD7",
"mX c #D8D7D6",
"MX c #C9CACE",
"NX c #E3DDD6",
"BX c #E5D8C6",
"VX c #E9E4D9",
"CX c #F1E8C8",
"ZX c #D6DBE4",
"AX c #CCD6E2",
"SX c #DCE1E9",
"DX c #E9E8E8",
"FX c #F2EFED",
"GX c #F3F1EE",
"HX c #EAECF1",
"JX c #F5F5F5",
"KX c #F9F6F5",
"LX c #FDFDFD",
"PX c #F6F7F9",
"IX c #EEF5F4",
"UX c None",
/* pixels */
"LXLXLXLXLXLXLXLXLXLXLXLXLXLXLXLXGXVXNXmXmXMXuXcXxXxXiXcXvXNXDXFXJXPXLXLXLXLXLXLXLXLXLXLXLXLXLXKX",
"LXLXLXLXLXLXLXLXLXLXLXLXKXDXmXvXcXcXiXuX6X8XXXXXyXiXxXiXxXxXxXiXvXmXDXLXLXLXLXLXLXLXLXLXLXLXLXKX",
"LXLXLXLXLXLXLXLXLXLXIXNXvXxXiXyX8X3Xb.*.;.E M G C ;.D.S.3XiXxXxXiXiXcXvXVXPXPXLXLXLXLXLXLXLXLXLX",
"LXLXLXLXLXLXLXLXJXNX9X0XqX.XY.Q C =.A *.I C 5 2 + 2 6 ;.Y 1.R.).$XwXpXxXxXbXDXJXLXLXLXLXLXLXLXKX",
"LXLXLXLXLXLXLXNX9XK.q n.F c D o @.3 *.C.a.a.E V G Y T S ! V y i.A.n.A.#XwXyXiXvXGXLXLXLXLXLXLXKX",
"LXLXLXLXLXLXVXF.q *.K.L.C P L I M.C.C.B.-.3 u V ~ ^ I ! R I I Y N.m.U 5 T ! J.yXxXDXLXLXLXLXLXKX",
"LXLXLXLXLXDX0Xq 3 m.`.w.7 I ^ H V I *.9 1 = 1 d.c.f.M.oX$.=.3.3.;.i p q 1 1 m 1.8XxXVXLXLXLXLXKX",
"LXLXLXLXDXxXS.$ Y `.Z.u.7 5 ..' I.L Z 3 9 1 0 y.a.(.I.M.N.;.G.C.S u C m.L.Z.R.b ..yXxXNXLXLXLXKX",
"LXLXUXFXpX3X4 @ R.M.Y.s.u.! } ` f.G a f Z W v.= : N._ z g.c.N.f.^ ^ a.a.R R ( l p G 6XiXVXLXLXKX",
"LXLXKXmX8Xt.$ d ' _ Y.f.g.U. .J 1.L s J R ^./.Q y , | X.x./.p.a.w.7 7 . o X w X e @.d.OXiXGXLXKX",
"LXLXDXyX3X8 O K b b E.R.] O.R.^._.6X3XB.<.d.~.O.v G I.Y.`.y.7 & : 5 5 @ >.^.p.B G.6.L d. XNXLXKX",
"LXFXcXqXt.  X k %.h XX=XO.] /.(.p.b.G.m.M.Y.|.x.{ K j h :.S.r.v.<.p.p.$.<.`.~ <.6.f i ` _ 6XFXLX",
"PXDXtXXX5 . a 7.0.%.0.8X~.] h.p.;.=.3.K.H.+X:X:X[ g 5.@XeX7XE.*.3 T ^.V..X4.H.3.#.G g.X./ I.NXKX",
"PXCX=X] c w h %.%.7.0.XXqX*X).v.n.F.D.B.Z.,Xg.R D $.oX$X X,.f.B G.eX`.`.dXeX6XN.Y.`.;XE i I.pXFX",
"IX<Xj.j.' 5.a J R.2.0.9.q.tX-Xe.8 - - = - t.2 u d h 2.,.Z L d.B 7X7XE.U.R.I I L.:Xi.4 m r [ %XVX",
"VX*X X).m.G.Z $.2.5.8X@X[ }.P.; & & & & & * 2 +.b s f Z #.6.L W #Xg t r t R A Y v.;.r.C D M oXxX",
"rXE.G.].<.A f Z f $.4.1.u.;X2X].D.F.S.n.w.u.o.n +.e *.S.#.J D /.P k t s d N.N.i.<.K.n., C E p.8X",
"rXE.G.B.;.A =. XXXW.E.4 % A.'.! 5.H.>X'.:X:X[.O.} R S.t.C.T.C Q 8.h K K j L ).'.C.:.5 < u e r C.",
"iXOX XJ.G.>.Y.`.^.Z.e.% # v.g &..X$X>XE.E.+X,X'.T.m.8 ; '.}.~ g &. .&.j &.J.M././.! A < o X i M.",
"bX$X[.9.+.| `.A.w.: : $ 9 S e P #XqX.XV.P P W.&X_.U : w.}.[.~ y F d._ h .X7XY.~ h.) P B + w _ 6X",
"NXwX} / ( eX-XP.; ; U *.*.A d K ^.Y.9.8.K F 1.E._.v.; Y n v ' h j H P R. X.X,.V } ] ( D G t  .sX",
"mXpXT./ B.n.P.w.w.`.Z.A ;.K.H.~ /.c.f.' K J  X+X'.u.* D v v ) H J h ,.(.'.E.t g ../ ) i E M R.NX",
"HXuXeXE Z.s.z.a.`.$XG.:.G.H.q #.Q d.d.h K V.J.L.).6 # N ] ] |.^.2 @  .(./.| z Q 9.8.K t H h.).VX",
"LXvXuXOXg.:X(.(.,X,XoXY.X.) < -.V.R.R.4.V.H.H.C.oX6 7 g._.}.:Xr.- A V E +.c ] E.XX2.b r _ h.*XGX",
"LXJX9XyX[.o.!.&X2X2X2Xk.] ] 3 * 0 G.B.M.C.1.! <.J.;.Z.c.g.c.N.# $ K.m.F ) ( ` W.g.[ i p g.W.VXPX",
"LXUXZX9XaX{.l.X.~.1X|.O.O.X.oXn.0 - q *.1.4.1.Q 1.1.W.{ | [.2   - -XE.Q.I.I.U.' h.{ p  .7XxXUXKX",
"LXLXPXmXcXsX}.l.j.|.1X2XO.k.1X<X-Xn.0 0 -.! 1.H P ..) v g.~ .   3 .X#X XE.#XoX} / z ~.wXuXPXLXKX",
"LXLXLXIXnX9XaX}.l.l.x.|.:X1X1X|.&XV.-.F.n.-.m.d.,.9.c c i >     q :.B.3.E.J.J.T./ !.rX9XHXLXLXKX",
"LXLXLXLXHXMX9XyX&Xk.O.` | ~.| X.h.~ E.`.v.3 9 q v.g.z c w > $ < =.;.:.1.4.>.#X}.|.rX9XSXLXLXLXKX",
"LXLXLXLXKXDXnX4X9X7X[.) x ) +.| W.*X%X(., O 2 < ^ f./ z y > O r z L >.L H E.<X1XwXkXDXLXLXLXLXKX",
"LXLXLXLXLXKXHXZXmXMX0X&X|.k.j.o.l.!.[.z.M m , y R...[ N [ G z { j./ [ U.*XdXaX9XzXHXLXLXLXLXLXKX",
"LXLXLXLXLXLXLXHXSXZXmXcXsXrXW.{.W.| } o.O.j. .8.| ( c z z o.l.|.*X1XtXdXsXuXzXAXJXLXPXLXLXLXLXKX",
"LXLXLXLXLXLXLXLXPXSXnXAXmXNXsXsXBXtX&X!.k.{.T.l.O.|.{.{.{.{.=XrXsXsXsXiXkXnXHXLXLXLXLXLXLXLXLXKX",
"LXLXLXLXLXLXLXLXLXPXHXZXZXlXnXmXvXmXsXdXtXtX1X1XdXCXCXCXCXBXvXmXvXkXhXlXSXPXLXLXLXLXLXLXLXLXLXKX",
"LXLXLXLXLXLXLXLXLXLXLXLXLXSXlXjXhXlXnXmXvXbXvXvXmXZXNXAXnXlXzXhXlXAXHXLXLXLXLXLXLXLXLXLXLXLXLXKX",
"LXLXLXLXLXLXLXLXLXLXLXLXLXLXUXHXnXlXlXlXhXhXjXgXhXgXjXhXjXlXAXHXJXLXLXLXLXLXLXLXLXLXLXLXLXLXLXKX"
};
