/* XPM */
static char *pizza[] = {
/* columns rows colors chars-per-pixel */
"48 48 256 2 ",
"   c #0B3210",
".  c #353919",
"X  c #301509",
"o  c #730C0F",
"O  c #4F371B",
"+  c #70351C",
"@  c #753427",
"#  c #413E28",
"$  c #08501D",
"%  c #27471A",
"&  c #055828",
"*  c #0E562A",
"=  c #2E4E2A",
"-  c #14642F",
";  c #326934",
":  c #44441C",
">  c #64421D",
",  c #555735",
"<  c #4C532D",
"1  c #664728",
"2  c #705032",
"3  c #456537",
"4  c #4C7538",
"5  c #526F33",
"6  c #6D6E36",
"7  c #327245",
"8  c #7A5D42",
"9  c #54704C",
"0  c #796646",
"q  c #797649",
"w  c #6F784E",
"e  c #5D5A42",
"r  c #971C19",
"t  c #871115",
"y  c #AD1C19",
"u  c #8D2A1C",
"i  c #A72C1D",
"p  c #993926",
"a  c #9A3934",
"s  c #8D302D",
"d  c #A42A29",
"f  c #A93C29",
"g  c #B83624",
"h  c #A63936",
"j  c #B33030",
"k  c #9D1E2B",
"l  c #F01922",
"z  c #D82A24",
"x  c #C83B29",
"c  c #D0382B",
"v  c #EF2D29",
"b  c #D91A1F",
"n  c #894529",
"m  c #98472A",
"M  c #9B4833",
"N  c #865839",
"B  c #96593B",
"V  c #8A4A32",
"C  c #A84A29",
"Z  c #BB4A2A",
"A  c #A9562C",
"S  c #B4562C",
"D  c #AA4638",
"F  c #B24939",
"G  c #A85639",
"H  c #B65738",
"J  c #99663C",
"K  c #8C6C3A",
"L  c #A76639",
"P  c #B76539",
"I  c #B2773C",
"U  c #C7462A",
"Y  c #D7472C",
"T  c #C64A33",
"R  c #D85A37",
"E  c #D05034",
"W  c #EE5233",
"Q  c #C86637",
"!  c #D56738",
"~  c #D8783C",
"^  c #C4723C",
"/  c #E9703B",
"(  c #895A45",
")  c #905249",
"_  c #A85948",
"`  c #BA5846",
"'  c #B34D4B",
"]  c #8A6844",
"[  c #996947",
"{  c #977747",
"}  c #976B54",
"|  c #9A7554",
" . c #8A744D",
".. c #A96747",
"X. c #B86747",
"o. c #A87747",
"O. c #B77849",
"+. c #A97956",
"@. c #B67A55",
"#. c #AE6757",
"$. c #AF796A",
"%. c #A16D62",
"&. c #C6594C",
"*. c #C86A47",
"=. c #C67846",
"-. c #D77747",
";. c #C67755",
":. c #D86D43",
">. c #E67B47",
",. c #F36D4A",
"<. c #C87867",
"1. c #C9686F",
"2. c #C45A6A",
"3. c #78853B",
"4. c #548856",
"5. c #758751",
"6. c #6F8E65",
"7. c #A08B3E",
"8. c #E0813F",
"9. c #8E8F52",
"0. c #A78847",
"q. c #B68748",
"w. c #A88659",
"e. c #B78958",
"r. c #B99858",
"t. c #A99652",
"y. c #B9A656",
"u. c #AEA656",
"i. c #918D69",
"p. c #AA8866",
"a. c #B98B65",
"s. c #AA956B",
"d. c #B99466",
"f. c #B99B75",
"g. c #A89377",
"h. c #BAA76A",
"j. c #B2B06E",
"k. c #9DA477",
"l. c #C88947",
"z. c #D88846",
"x. c #C9974A",
"c. c #D89648",
"v. c #C6895A",
"b. c #D88A57",
"n. c #C59757",
"m. c #D89654",
"M. c #E88845",
"N. c #EB9648",
"B. c #EC8A53",
"V. c #EC9953",
"C. c #D5A34E",
"Z. c #CAA75A",
"A. c #D4A558",
"S. c #D9B656",
"D. c #CBAC50",
"F. c #E6A85A",
"G. c #F2A959",
"H. c #E2BA5A",
"J. c #C48967",
"K. c #C99965",
"L. c #C89C74",
"P. c #CC8F6A",
"I. c #C7A969",
"U. c #D7A869",
"Y. c #CAB66B",
"T. c #D7B567",
"R. c #CAA677",
"E. c #D5AA77",
"W. c #CAB877",
"Q. c #D6B578",
"!. c #E8A864",
"~. c #E5B866",
"^. c #E8B777",
"/. c #F0B570",
"(. c #EA9861",
"). c #E7C85C",
"_. c #DEC668",
"`. c #DBC376",
"'. c #EBC977",
"]. c #F6C779",
"[. c #EACD6E",
"{. c #B8A788",
"}. c #ACA78F",
"|. c #96A3B5",
" X c #ADADAD",
".X c #A6A7A8",
"XX c #BCBCBC",
"oX c #B6B6B7",
"OX c #AEB1AF",
"+X c #BE9D83",
"@X c #CE9A89",
"#X c #CCAA88",
"$X c #D6B788",
"%X c #CFB395",
"&X c #E8BB83",
"*X c #EAB68C",
"=X c #C8BAAA",
"-X c #C3BDBA",
";X c #D2B9A8",
":X c #D4C48A",
">X c #E9C689",
",X c #E9C999",
"<X c #F0CB8B",
"1X c #D8C4A8",
"2X c #CBC3B8",
"3X c #D5C8BA",
"4X c #D2C7B0",
"5X c #E8D4B8",
"6X c #EAD1AD",
"7X c #F0E5B1",
"8X c #97ACC4",
"9X c #9EB2C6",
"0X c #A8B6C9",
"qX c #B9BDC5",
"wX c #ADBCD0",
"eX c #B8BAD3",
"rX c #BCC1C5",
"tX c #B9C5D5",
"yX c #C4C4C4",
"uX c #CCC9C4",
"iX c #CBCACB",
"pX c #C7C6C8",
"aX c #D4CCC3",
"sX c #D5CEC8",
"dX c #D5D1CC",
"fX c #DBD2C6",
"gX c #C8CDD5",
"hX c #D0CFD2",
"jX c #CCD3DC",
"kX c #CCD3D4",
"lX c #D3D3D3",
"zX c #D4D5D9",
"xX c #DCDCDC",
"cX c #D9D8D6",
"vX c #E3DACA",
"bX c #E3DEDA",
"nX c #E7E3DA",
"mX c #F0E4CC",
"MX c #C9D5E2",
"NX c #DCDEE2",
"BX c #D2DAE5",
"VX c #D8C7E5",
"CX c #E1DEE3",
"ZX c #DEE1E6",
"AX c #DEE7F1",
"SX c #E3E3E3",
"DX c #ECECEC",
"FX c #E9E8E6",
"GX c #F0EDEA",
"HX c #F3F0EE",
"JX c #ECEEF1",
"KX c #F3F3F3",
"LX c #FEFEFE",
"PX c #F7F7F7",
"IX c #EFF0F1",
"UX c #97CEA9",
/* pixels */
"3X5XkXUXkXkXlXlXiXXXrXhXiXuXyXyXpXyXuXaXsXuXuXuXaX3XuXuXuXuXuXpXyXyXyXyXyXqXrXrXyXXXXXpXyXpXXXXX",
"iXpXiXiXiXiXiXuXiXiXpXuXpXiXhXdXsXaXaXaXaX3X@X;XsXaX3XaXaXaXdXdXlXdXiXiXiXsXiXpXiXiXiXiXiXiXiXiX",
"oXrXrX=XoXkXkX2XiXpXrXuXuXsXsXuXaXhX2X{.g.a.*.-.@X%X-X-X2XaXaXaXaXdXdX2X=XoX-X.XOX2XrXXXyXkX2X-X",
".XoXgXOX.XrXpXoXrX2XqXhXsXaX3X4X%Xf.} ( { S U A V K 9.5.}.3X3XaX3XaXaXaX4X.X%X{..XXX9XoXrXtXXXoX",
"OX X XOXOXOX X X XpX3X-X;X%XK.O.L [ ( ] [ V 6 < + 1 q { { e.K.U.$X4X3XuXaXsXoX XOX XOX X X X XOX",
"DXDXDXDXGXDXDXDXhX=Xi.%.&.x S t @ V N w.0.0.L m A J ] B I m m q.y.I.Q.1X3X3X3XcXFXcXxXSXxXxXxXxX",
"LXLXLXLXLXLXLXaXg.i.q 9.g g p @ ) ( | r.t.q.U p L o.K B L n n q.u.6.t.l.U.#X4XaXFXKXDXDXIXIXDXDX",
"SXxXxXxXlXZXfXi.8 ] h.j.B H J o.K.R.u.s.q , u m q.L [ +.G o.[ { e.q.0 3 N J r.=XaXxXSXSXnXSXSXSX",
"LXLXPXPXKXGX=Xq 2 +.Y.9.< L I A p _ ) 8 # = # X.S.x.q.K._ } +.| { g g e < , n v.4XaXxXNXxXxXZXZX",
"LXLXLXLXLXbX}.= N I.t.3.; 6 P E L ) ) e e 3 4.j.S.D.r.K.+.8 p.d.B r m { w q ..F v.3XfXxXAXgXgXpX",
"LXLXLXLXCX4X6.# +.I.0.7.5 6 :.! x...s 2 ) 2 w 7 3.T.=.P A.y.p.r.A n L r.T.Z.b.z c R.3XaXAXjXqXoX",
"LXLXLXKX4X{.; @ b.0.D.y.7.q.-.U x.C u a a #.t.= = 0.T U z.H.r.x.l.I y.0.m m T b y C R.3XCXPXNXzX",
"wXnXFXcX%X6.= u Y &.K.C.x.c.=.h O.M k h G Z.S.L n 2 R W c.D.=.x.7.5 ; . o o t t t a @.#X3XFXlXzX",
"jXnXbX3XL.4.O ' c T q.P / :.@.@.L.+X#.#.o.x.b.,.l V b.H.[.h.6 ; & % : > @ I G o ) $.@.x.#XbXZXDX",
"tXFXFX;Xk.= + j c j E.*XW ,.P.H.D.{.=Xw.o.n.V.,.Y Q X.P w.4.* ; 6 7.o.V $._.x.[ f.%.f =.;.3XcXDX",
"jXcX3X@X4.% o r 2.h <.*X,.W V.H.q.| w.0.v.n.F.G.! F k h $.k.i.0.+.o.I _ #.I...[ %.s g R T #XPXLX",
"gXGX,X#X3 X o 2.1.2.1.*XB.W c.t.[ N | s.p.Q.[.).Q d #.f.:X:Xd.[ 2 J r.a.$.@.a.%.) m c.R U v.nXDX",
"VXmX<X,.g o a 2.2.2.1.@XE.m.O.7.9.g.}.f.r.`.H.D.H G K.$X$Xe.n.N ] h.S.K.6X%X#Xw.o.A.).! U v.fXxX",
"MXmXG.W c a k ' ` 2.1.1.@X,X_.9.6.w q ] { Y.I u f _ L.R.@.G x.n {.7XI.Q.>XR.f.I.S.Z.u.C y z.1XGX",
"MX^.>.b.P %.k ' a.#.1.<.:.<Xj.7 7 ; ; - ; 4., p d a _ _ a G O.V #XE.J.-.@.J N j._.{ 5 @ r Q R.dX",
"xX&XP.K.o.g.M _ @.#.=XR.P ~.9.7 & & - & - & 2 Y j k a a ) $._ _ $XD d r i L B { 0. .q J C S K.vX",
"1XL.g.D.w.} s M a ' @XJ.7.S.`.j.6.9 7 4 ; e ! v z k V 0 ( #.G n.*.r r u n q.o.[ { s.9.2 A Q n.3X",
",Xn.p.K.{ N s _ M _ ` B 5 S.[.D.$.}.%XY.u.D.N.W Y r i.k.+.C M m.' d d j p I Y.r.e.s.q > m Z A #X",
"1XK.p.w.} ( +.L.#XE.I.9 & j.Z._ ) p.h.Y.[._.F.>.-.o.6.4.Z.~.M G X.j ' ' f G n.`.h. .2 1 + t r e.",
"3XU.d.d.s.$.r.A.S.y.4 - $ 9.Z _ f.$X$XK.U.Q.`.F.A.w.7 4 Y.~.l.D ` =.` d ' $.q.A.Z.J N 1 o o i @.",
"aX$XF.L.R T K.h.9.; - $ < o.r ` #X$X$Xa.X.;.T.'.U.K - 6 _.~.P i H z.S d $.$Xn.q.c.Q _ 2 o t U R.",
"fX$Xc.R c I.:Xu.4 - 4 , 0 B r ' R.P.<.<.F D v.E.U.{ ; 9.b.>.O.h f ^ P ` @X%Xn.P ~ Y H m p r Q 1X",
"lX1X~ Y ` :Xj.9.4 3 { } ] ] a F A.v.*.` F F @.e.A.9.;  .v l x D d F F P.K.P...p ~ W Y C A p =.vX",
"lX3Xb.R w.9.u.5.3.h.w.N ] p.p.O.S.S.x.` F F P.E.Q.7.- C l l Y F D h X.T.T.v.d D :.! Y g S S v.GX",
"gX2XE.C w.t.y.9.y.:Xs. .p.f.+...l.C.l.Z j X.R.W.I.6 % C v W V.c.8 s =.H._.b.i Z *.x U y S Q I.FX",
"BXpX1Xl.r._.S.D.Y.Q.w.a.v.O., 8 ` =.O.F _ f.s.d.I.6 % P B.B.H.r.3 @ P m.-.Y c <.J.<.' r U z.U.FX",
"wXyX2XT.c.H.H.S.'.'.E.v.R Y 1 6.d.J.J.J.d.a.a.d.R.6 < c.m.~.`.w 3 ] M S c z R L.<.&.g y Q c.,XLX",
"BXDXXX1XN.~ !.>X[.[.].N.W W > * 9 g.e.e.a.O.o.O.K.{ 7.H.S.H.x.$ = s.0.T c U R U.z.Q Z i z.A.mXLX",
"wXvXiX4X,XM./ >.~.]././ ,./ p.3 9 9  .+.@.@.o.X.@.e.T.m.R F.K   = R.r.X.*.=.Q -.C.z.y Z U.;XcXzX",
"BXKXDXpXfX&XN./ >.^.].N.W / &Xh.5.3 9 w [ @.@.P ` X.b.z -.Z.:   < :XL.K.K.U.K.T ! U g !.;XSXCXzX",
"wXvXlXiXuX5X/.N.M.!.].].M.V.<X&X$Xi.9 9  .w.X.P _ *.Y z c.o..   , L.#XJ.v.Q.R.z.x Y G.1X=XJXPXiX",
"BXHXDXKXkX2X6X!.M.N.G./.].].].~.&Xd. .i.9.9.0.^ X.:.z z g >     8 w.w.+.K.f.a.m.Y B.,X=XNXDXKXFX",
"wXvXcXpXzXXX-X,XG.N.M.M.V./.G.M.N.G w.h.i.0 0 w.w.b.x b t : % :  .} } +.J.+.L.!.M.,X;XrXKXFXxXhX",
"BXGXFXFXKXNX-X=X>XG.>.c x R E W m.K.U.A.6 2 , , { l.x b t 1 : + M +.+.@._ L U.'.&X4XqXNXDXDXIXCX",
"eXmXcXiXzXhXqXXX=X1X!.R Y Y Y :.!.^.Q.H.2 O 2 1 q.x.E z f < O y U D _ G H U.<X<X;XpXNXiXhXpXDXSX",
"SXKXFXCXDXcXNXSXhX-X%X/.N.B.M.>.N.F.T.S.C + 1 u =.8.~ A Q C g ! M.U Z -.&X6X6X2XoXjXPXKXcXHXNXxX",
"wXvXxXhXxXzXpXzXCXhXuX3X6X/.M.M.>.! ~ M./ / A ` J.T g U U 8.8.V.!.F./.,X6X5X-XtXzXiXSXFXzXPXcXiX",
"BXFXFXNXFXCXNXKXZXVXSXcXfX5X*X*X*Xb.>./ / V.v.:.c Y Y Y U ! N./.,X6X5X5X3XrXgXPXLXLXLXLXLXLXLXLX",
"wXnXbXzXNXCXxXyXzXgXqXMXxXcXfXfXmX6X].G.G./.N.N.B./.].]././.&X5X7X5X5XuXqXjXLXLXLXLXLXLXLXLXLXPX",
"BXnXFXxXSXxXxXxXSXxXSXMXzXjXZXcXuX3X3X6X,X>X].].7XmXmXmXmX5XvXvXfXeX0X0XjXHXiXzXKXiXgXNXSXpXxXKX",
"wXnXFXcXCXZXxXDXxXNXxXSXkX0X|.tXjXNXcXvX5X6X6X3X5XvXvXvXcXzXhXtXgXwXgXGXLXDXxXCXJXFXSXDXDXSXDXPX",
"jXnXxXhXSXcXhXCXxXxXlXxXZXFXxXtX8X0XtXjXkXkXjXjXVXMXMXgXwXwX0XtXeXyXNXpXhXKXhXyXhXzXcXxXpXhXiXpX",
"tXHXHXKXIXIXHXFXDXFXDXFXKXCXSXFXzXjXtXtX9X9X8X8X8X8X8X0X0XjXSXKXKXDXJXCXSXPXJXDXKXDXKXKXJXDXIXDX"
};
